<?xml version="1.0" standalone="no"?><!-- Generator: Gravit.io --><svg xmlns="http://www.w3.org/2000/svg" xmlns:xlink="http://www.w3.org/1999/xlink" style="isolation:isolate" viewBox="0 0 2000 600" width="2000" height="600"><defs><clipPath id="_clipPath_i2ojYailzmGUPX5TBkbwM69MxlEI5b1c"><rect width="2000" height="600"/></clipPath></defs><g clip-path="url(#_clipPath_i2ojYailzmGUPX5TBkbwM69MxlEI5b1c)"><path d=" M 1916.73 542.04 L 1916.73 449.42 L 1883.55 524.68 L 1873.07 524.68 L 1839.9 451.09 L 1839.9 542.04 L 1825.2 542.04 L 1825.2 417.09 L 1839.9 417.09 L 1878.31 503.45 L 1916.73 417.09 L 1931.42 417.09 L 1931.42 542.04 L 1916.73 542.04 Z  M 1783.78 542.04 L 1757.12 489.19 L 1725.43 489.19 L 1725.43 542.04 L 1710.48 542.04 L 1710.48 417 L 1718.13 417 L 1725.43 417 L 1760.06 417 C 1767.28 417 1773.63 418.49 1779.1 421.47 C 1784.57 424.45 1788.81 428.67 1791.82 434.15 C 1794.82 439.62 1796.33 445.93 1796.33 453.09 C 1796.33 460.26 1794.82 466.57 1791.82 472.04 C 1788.81 477.52 1784.55 481.74 1779.05 484.72 C 1777.07 485.8 1774.97 486.68 1772.76 487.36 L 1801.57 542.04 L 1783.78 542.04 Z  M 1778.37 464.65 C 1780.03 461.3 1780.89 457.45 1780.95 453.09 C 1780.95 448.74 1780.11 444.89 1778.45 441.54 C 1776.79 438.18 1774.44 435.61 1771.41 433.8 C 1768.37 432 1764.82 431.09 1760.75 431.09 L 1725.43 431.09 L 1725.43 475.09 L 1760.75 475.09 C 1764.76 475.09 1768.28 474.19 1771.32 472.39 C 1774.36 470.58 1776.71 468 1778.37 464.65 Z  M 1662.01 535.85 C 1658.05 531.73 1656.08 525.91 1656.08 518.41 L 1656.08 417.09 L 1679.63 417.09 L 1679.63 512.56 C 1679.63 514.74 1680.24 516.42 1681.47 517.59 C 1682.7 518.77 1684.47 519.35 1686.76 519.35 L 1690.71 519.35 L 1690.71 542.04 L 1678.68 542.04 C 1671.52 542.04 1665.96 539.98 1662.01 535.85 Z  M 1611.05 535.85 C 1607.09 531.73 1605.12 525.91 1605.12 518.41 L 1605.12 417.09 L 1628.66 417.09 L 1628.66 512.56 C 1628.66 514.74 1629.28 516.42 1630.51 517.59 C 1631.74 518.77 1633.51 519.35 1635.8 519.35 L 1639.75 519.35 L 1639.75 542.04 L 1627.72 542.04 C 1620.56 542.04 1615 539.98 1611.05 535.85 Z  M 1534.69 517.8 C 1538.1 521.13 1542.87 522.79 1549 522.79 C 1552.15 522.79 1555.27 522.23 1558.37 521.11 C 1561.46 520 1564.27 518.41 1566.79 516.34 L 1582.17 530.01 C 1577.53 534.25 1572.32 537.53 1566.53 539.85 C 1560.74 542.17 1554.9 543.33 1549 543.33 C 1540.41 543.33 1536.11 543.33 1536.11 543.33 C 1536.11 543.33 1533.06 541.77 1526.96 538.65 C 1520.86 535.52 1516.2 530.97 1512.99 524.98 C 1509.78 518.99 1508.18 511.79 1508.18 503.37 L 1508.18 493.31 C 1508.18 484.49 1509.71 476.96 1512.78 470.71 C 1515.84 464.47 1520.31 459.71 1526.18 456.45 C 1532.06 453.18 1539.15 451.55 1547.45 451.55 C 1555.24 451.55 1561.92 453.5 1567.48 457.39 C 1573.03 461.29 1577.26 466.94 1580.15 474.36 C 1583.05 481.78 1584.49 490.73 1584.49 501.22 L 1584.49 507.06 L 1529.77 507.06 C 1530.3 511.54 1531.94 515.12 1534.69 517.8 Z  M 1563.01 491.16 L 1562.75 489.1 C 1562.12 483.95 1560.5 479.96 1557.9 477.16 C 1555.29 474.35 1551.81 472.95 1547.45 472.95 C 1541.78 472.95 1537.38 474.64 1534.26 478.02 C 1531.34 481.17 1529.79 485.56 1529.6 491.16 L 1563.01 491.16 Z  M 1464.01 487.98 C 1464.01 483.63 1462.76 480.25 1460.27 477.84 C 1457.78 475.44 1454.24 474.23 1449.66 474.23 C 1445.3 474.23 1441.94 475.45 1439.56 477.89 C 1437.18 480.32 1435.99 483.75 1435.99 488.16 L 1435.99 542.04 L 1412.45 542.04 L 1412.45 417.09 L 1435.99 417.09 L 1435.99 464.98 C 1438.29 461.04 1440.91 457.96 1443.86 455.76 C 1447.61 452.95 1452.32 451.55 1457.99 451.55 C 1467.39 451.55 1474.66 454.71 1479.82 461.04 C 1484.98 467.37 1487.55 476.33 1487.55 487.9 L 1487.55 542.04 L 1464.01 542.04 L 1464.01 487.98 Z  M 1347.09 484.76 C 1349.18 485.14 1352.23 485.55 1356.24 486.01 C 1356.76 486.07 1357.27 486.12 1357.79 486.18 C 1358.3 486.24 1358.82 486.3 1359.34 486.35 C 1359.56 486.41 1359.82 486.44 1360.11 486.44 C 1360.4 486.44 1360.65 486.47 1360.88 486.52 C 1367.81 487.33 1373.46 488.36 1377.81 489.62 C 1382.17 490.88 1385.88 493.4 1388.94 497.18 C 1392.01 500.96 1393.54 506.52 1393.54 513.85 C 1393.54 520.04 1392.05 525.34 1389.07 529.75 C 1386.09 534.16 1381.74 537.53 1376.01 539.85 C 1370.28 542.17 1363.38 543.33 1355.3 543.33 C 1349.97 543.33 1347.3 543.33 1347.3 543.33 C 1347.3 543.33 1344.78 542.86 1339.74 541.91 C 1334.7 540.97 1329.97 539.58 1325.56 537.74 C 1321.15 535.91 1317.26 533.7 1313.88 531.13 L 1328.4 512.99 C 1332.7 515.74 1337.19 517.86 1341.89 519.35 C 1346.59 520.84 1351.06 521.59 1355.3 521.59 C 1360.8 521.59 1365.06 520.97 1368.1 519.74 C 1371.14 518.51 1372.66 516.8 1372.66 514.63 C 1372.66 512.62 1372 511.1 1370.68 510.07 C 1369.36 509.04 1367.67 508.31 1365.61 507.88 C 1363.55 507.45 1360.65 507.06 1356.93 506.72 C 1355.9 506.61 1354.85 506.49 1353.79 506.38 C 1352.73 506.26 1351.66 506.15 1350.57 506.03 C 1350.34 505.98 1350.1 505.93 1349.84 505.9 C 1349.58 505.87 1349.34 505.86 1349.11 505.86 C 1342.46 505 1337.14 503.94 1333.13 502.68 C 1329.11 501.42 1325.72 499 1322.94 495.42 C 1320.16 491.84 1318.77 486.64 1318.77 479.82 C 1318.77 473.86 1320.21 468.76 1323.07 464.52 C 1325.94 460.28 1330.09 457.06 1335.53 454.86 C 1340.97 452.65 1347.56 451.55 1355.3 451.55 C 1359.82 451.55 1364.33 452.01 1368.83 452.92 C 1373.33 453.84 1377.64 455.16 1381.77 456.88 C 1385.89 458.59 1389.7 460.66 1393.2 463.06 L 1379.19 480.16 C 1375.29 477.99 1371.22 476.3 1366.99 475.09 C 1362.74 473.89 1358.68 473.29 1354.78 473.29 C 1350.03 473.29 1346.33 473.83 1343.7 474.92 C 1341.06 476.01 1339.74 477.53 1339.74 479.48 C 1339.74 480.97 1340.44 482.13 1341.85 482.96 C 1343.25 483.79 1345 484.39 1347.09 484.76 Z  M 1292.05 475.09 C 1290.39 474.52 1288.47 474.23 1286.29 474.23 C 1281.53 474.23 1277.85 475.77 1275.25 478.83 C 1272.64 481.9 1271.34 486.15 1271.34 491.59 L 1271.34 542.04 L 1246.07 542.04 L 1246.07 452.84 L 1271.34 452.84 L 1271.34 464.93 C 1273.49 461.24 1276.09 458.25 1279.11 455.97 C 1283.04 453.02 1287.35 451.55 1292.05 451.55 C 1295.77 451.55 1299.14 452.14 1302.15 453.31 C 1305.15 454.48 1307.77 456.22 1310.01 458.51 L 1296.26 477.67 C 1295.11 476.53 1293.71 475.67 1292.05 475.09 Z  M 1175.65 517.8 C 1179.05 521.13 1183.82 522.79 1189.95 522.79 C 1193.1 522.79 1196.23 522.23 1199.32 521.11 C 1202.41 520 1205.22 518.41 1207.74 516.34 L 1223.13 530.01 C 1218.48 534.25 1213.27 537.53 1207.48 539.85 C 1201.7 542.17 1195.85 543.33 1189.95 543.33 C 1181.36 543.33 1177.06 543.33 1177.06 543.33 C 1177.06 543.33 1174.01 541.77 1167.91 538.65 C 1161.81 535.52 1157.15 530.97 1153.95 524.98 C 1150.74 518.99 1149.13 511.79 1149.13 503.37 L 1149.13 493.31 C 1149.13 484.49 1150.67 476.96 1153.73 470.71 C 1156.8 464.47 1161.26 459.71 1167.14 456.45 C 1173.01 453.18 1180.1 451.55 1188.41 451.55 C 1196.2 451.55 1202.87 453.5 1208.43 457.39 C 1213.99 461.29 1218.21 466.94 1221.11 474.36 C 1224 481.78 1225.45 490.73 1225.45 501.22 L 1225.45 507.06 L 1170.72 507.06 C 1171.25 511.54 1172.89 515.12 1175.65 517.8 Z  M 1203.96 491.16 L 1203.7 489.1 C 1203.07 483.95 1201.45 479.96 1198.85 477.16 C 1196.24 474.35 1192.76 472.95 1188.41 472.95 C 1182.73 472.95 1178.34 474.64 1175.21 478.02 C 1172.3 481.17 1170.74 485.56 1170.55 491.16 L 1203.96 491.16 Z  M 1092.93 542.04 L 1073.77 483.86 L 1054.6 542.04 L 1037.07 542.04 L 1009.57 452.84 L 1032.17 452.84 L 1047.98 507.92 L 1066.81 452.84 L 1080.73 452.84 L 1099.55 507.92 L 1115.36 452.84 L 1137.96 452.84 L 1110.46 542.04 L 1092.93 542.04 Z  M 979.88 538.77 C 974.12 541.81 967.17 543.33 959.04 543.33 C 950.9 543.33 943.96 541.81 938.2 538.77 C 932.44 535.74 928.06 531.31 925.05 525.5 C 922.04 519.68 920.54 512.68 920.54 504.48 L 920.54 489.96 C 920.54 481.88 922.04 474.97 925.05 469.21 C 928.06 463.45 932.44 459.07 938.2 456.06 C 943.96 453.05 950.9 451.55 959.04 451.55 C 967.17 451.55 974.12 453.05 979.88 456.06 C 985.64 459.07 990.02 463.45 993.03 469.21 C 996.04 474.97 997.54 481.88 997.54 489.96 L 997.54 504.74 C 997.54 512.88 996.04 519.82 993.03 525.58 C 990.02 531.34 985.64 535.74 979.88 538.77 Z  M 973.99 489.96 C 973.99 484.98 972.67 481.11 970.04 478.36 C 967.4 475.61 963.71 474.23 958.95 474.23 C 954.26 474.23 950.6 475.61 948 478.36 C 945.39 481.11 944.09 484.98 944.09 489.96 L 944.09 504.74 C 944.09 509.78 945.38 513.69 947.95 516.47 C 950.53 519.25 954.2 520.64 958.95 520.64 C 963.71 520.64 967.4 519.25 970.04 516.47 C 972.67 513.69 973.99 509.78 973.99 504.74 L 973.99 489.96 Z  M 893.68 488.84 C 887.75 492 880.89 493.57 873.1 493.57 L 846.55 493.57 L 846.55 542.04 L 823 542.04 L 823 417.09 L 833.74 417.09 L 846.55 417.09 L 873.1 417.09 C 880.89 417.09 887.75 418.68 893.68 421.86 C 899.61 425.04 904.21 429.52 907.48 435.31 C 910.74 441.09 912.38 447.8 912.38 455.41 C 912.38 463.03 910.74 469.72 907.48 475.48 C 904.21 481.24 899.61 485.69 893.68 488.84 Z  M 886.21 447.21 C 885.03 444.83 883.37 443 881.22 441.71 C 879.07 440.42 876.57 439.77 873.7 439.77 L 846.55 439.77 L 846.55 470.88 L 873.7 470.88 C 876.51 470.88 878.99 470.24 881.14 468.95 C 883.29 467.66 884.96 465.84 886.16 463.49 C 887.37 461.14 887.97 458.45 887.97 455.41 C 887.97 452.32 887.38 449.59 886.21 447.21 Z " fill-rule="evenodd" fill="rgb(124,247,30)"/></g></svg>
